REM MD5 a8d88e83b9879ec226e1d85ce692c2b7
FILE "Tech PlayStation 97-4 (Japan).bin" BINARY
  TRACK 01 MODE2/2352
    INDEX 01 00:00:00
  TRACK 02 AUDIO
    INDEX 00 58:17:04
    INDEX 01 58:19:04
  TRACK 03 AUDIO
    INDEX 00 59:46:45
    INDEX 01 59:48:45
REM LEADOUT 62:48:45
